<?xml version="1.0" encoding="UTF-8"?>
<svg id="uuid-e0a48fd1-a61e-469e-8150-853311bcbac9" data-name="blackSash" xmlns="http://www.w3.org/2000/svg" xmlns:xlink="http://www.w3.org/1999/xlink" viewBox="0 0 27.67 27.67">
  <defs>
    <radialGradient id="uuid-b7b706eb-d885-4d19-86da-b86c589d57a3" cx="13.83" cy="13.83" fx="13.83" fy="13.83" r="13.58" gradientTransform="matrix(1, 0, 0, 1, 0, 0)" gradientUnits="userSpaceOnUse">
      <stop offset=".54" stop-color="#f9f9f9"/>
      <stop offset=".59" stop-color="#b3b3b3"/>
      <stop offset="1" stop-color="#f2f2f2" stop-opacity="0"/>
    </radialGradient>
    <clipPath id="uuid-9d2157a6-6244-4038-9fbb-d11e692a3ca2">
      <path d="M13.83,13.83c0-.66,.71-1.33,1.42-1.33" fill="none"/>
    </clipPath>
    <radialGradient id="uuid-13709c5b-49d3-4bf6-a8f8-37cbac762bf7" cx="13.83" cy="13.83" fx="13.83" fy="13.83" r="13.58" gradientTransform="matrix(1, 0, 0, 1, 0, 0)" gradientUnits="userSpaceOnUse">
      <stop offset=".54" stop-color="#fff"/>
      <stop offset=".59" stop-color="#666"/>
      <stop offset=".64" stop-color="#6e6e6e"/>
      <stop offset=".72" stop-color="#868686"/>
      <stop offset=".82" stop-color="#acacac"/>
      <stop offset=".94" stop-color="#e1e1e1"/>
      <stop offset="1" stop-color="#fff"/>
    </radialGradient>
  </defs>
  <g id="uuid-39a68576-c22b-4cfd-8df5-fbd8b28c4b85" data-name="filled-region">
    <path d="M13.83,27.42C6.34,27.42,.25,21.32,.25,13.83S6.34,.25,13.83,.25s13.58,6.09,13.58,13.58-6.09,13.58-13.58,13.58Z" fill="url(#uuid-b7b706eb-d885-4d19-86da-b86c589d57a3)"/>
    <path d="M13.83,.5c7.35,0,13.33,5.98,13.33,13.33s-5.98,13.33-13.33,13.33S.5,21.19,.5,13.83,6.48,.5,13.83,.5m0-.5C6.19,0,0,6.19,0,13.83s6.19,13.83,13.83,13.83,13.83-6.19,13.83-13.83S21.47,0,13.83,0h0Z" fill="#f2f2f2"/>
  </g>
  <g clip-path="url(#uuid-9d2157a6-6244-4038-9fbb-d11e692a3ca2)">
    <g id="uuid-1b1cf3ff-2a97-46b3-8935-2681727c196d" data-name="filled-region">
      <path d="M13.83,27.42C6.34,27.42,.25,21.32,.25,13.83S6.34,.25,13.83,.25s13.58,6.09,13.58,13.58-6.09,13.58-13.58,13.58Z" fill="url(#uuid-13709c5b-49d3-4bf6-a8f8-37cbac762bf7)"/>
      <path d="M13.83,.5c7.35,0,13.33,5.98,13.33,13.33s-5.98,13.33-13.33,13.33S.5,21.19,.5,13.83,6.48,.5,13.83,.5m0-.5C6.19,0,0,6.19,0,13.83s6.19,13.83,13.83,13.83,13.83-6.19,13.83-13.83S21.47,0,13.83,0h0Z" fill="#3d3d3d"/>
    </g>
  </g>
  <g id="uuid-698c4e41-2998-4438-9aed-4413dd63b869" data-name="center-node">
    <circle cx="13.83" cy="13.83" r="6.47" fill="#fff"/>
    <path d="M13.83,7.61c3.43,0,6.22,2.79,6.22,6.22s-2.79,6.22-6.22,6.22-6.22-2.79-6.22-6.22,2.79-6.22,6.22-6.22m0-.5c-3.71,0-6.72,3.01-6.72,6.72s3.01,6.72,6.72,6.72,6.72-3.01,6.72-6.72-3.01-6.72-6.72-6.72h0Z" fill="#484848"/>
  </g>
</svg>