<?xml version="1.0" encoding="UTF-8"?>
<svg id="uuid-0274e464-2423-418c-b9ea-7e804a6d6a85" data-name="blackSash" xmlns="http://www.w3.org/2000/svg" xmlns:xlink="http://www.w3.org/1999/xlink" viewBox="0 0 27.67 27.67">
  <defs>
    <clipPath id="uuid-f2f80fa5-3190-4ecd-9559-c5a9cb0dac27">
      <path d="M13.83,13.83c0-.66,.71-1.33,1.42-1.33" fill="none"/>
    </clipPath>
  </defs>
  <g id="uuid-84940046-febe-4618-b2a4-7f76767eaf01" data-name="filled-region">
    <path d="M13.83,.5c7.35,0,13.33,5.98,13.33,13.33s-5.98,13.33-13.33,13.33S.5,21.19,.5,13.83,6.48,.5,13.83,.5m0-.5C6.19,0,0,6.19,0,13.83s6.19,13.83,13.83,13.83,13.83-6.19,13.83-13.83S21.47,0,13.83,0h0Z"/>
  </g>
  <g clip-path="url(#uuid-f2f80fa5-3190-4ecd-9559-c5a9cb0dac27)">
    <g id="uuid-b3a1c721-1d94-4823-b550-86da157107ba" data-name="filled-region">
      <path d="M13.83,27.42C6.34,27.42,.25,21.32,.25,13.83S6.34,.25,13.83,.25s13.58,6.09,13.58,13.58-6.09,13.58-13.58,13.58Z" fill="#444"/>
      <path d="M13.83,.5c7.35,0,13.33,5.98,13.33,13.33s-5.98,13.33-13.33,13.33S.5,21.19,.5,13.83,6.48,.5,13.83,.5m0-.5C6.19,0,0,6.19,0,13.83s6.19,13.83,13.83,13.83,13.83-6.19,13.83-13.83S21.47,0,13.83,0h0Z"/>
    </g>
  </g>
  <g id="uuid-0bbb4510-5986-460e-80c7-92d8404e42fd" data-name="center-node">
    <circle cx="13.83" cy="13.83" r="6.47" fill="#fff"/>
    <path d="M13.83,7.61c3.43,0,6.22,2.79,6.22,6.22s-2.79,6.22-6.22,6.22-6.22-2.79-6.22-6.22,2.79-6.22,6.22-6.22m0-.5c-3.71,0-6.72,3.01-6.72,6.72s3.01,6.72,6.72,6.72,6.72-3.01,6.72-6.72-3.01-6.72-6.72-6.72h0Z" fill="#555"/>
  </g>
</svg>