<?xml version="1.0" encoding="UTF-8"?>
<svg id="uuid-2b8e7ba6-0d69-4e9a-9e0d-11b7bda43bad" data-name="orangeChallenge" xmlns="http://www.w3.org/2000/svg" xmlns:xlink="http://www.w3.org/1999/xlink" viewBox="0 0 27.67 27.67">
  <defs>
    <radialGradient id="uuid-da644244-447d-45f8-81ea-bc45ddd8b74e" cx="13.83" cy="13.83" fx="13.83" fy="13.83" r="13.58" gradientUnits="userSpaceOnUse">
      <stop offset=".54" stop-color="#f4ba45"/>
      <stop offset=".59" stop-color="#ffefbf"/>
      <stop offset="1" stop-color="#f4ba45" stop-opacity="0"/>
    </radialGradient>
    <clipPath id="uuid-3325f044-4e7a-4e74-ac99-974ad808c4fe">
      <path d="M13.83,13.83c0-.66,.71-1.33,1.42-1.33" fill="none"/>
    </clipPath>
    <radialGradient id="uuid-82a63d97-0419-4908-9365-2a30f8291021" cx="13.83" cy="13.83" fx="13.83" fy="13.83" r="13.58" gradientUnits="userSpaceOnUse">
      <stop offset=".54" stop-color="#f4ba45"/>
      <stop offset=".59" stop-color="#8a4700"/>
      <stop offset=".65" stop-color="#a25e0d"/>
      <stop offset=".75" stop-color="#c88120"/>
      <stop offset=".85" stop-color="#e49b2f"/>
      <stop offset=".94" stop-color="#f5aa37"/>
      <stop offset="1" stop-color="#fbb03b"/>
    </radialGradient>
  </defs>
  <g id="uuid-569dd56b-8056-408e-9643-e8b276444254" data-name="filled-region">
    <path d="M13.83,27.42C6.34,27.42,.25,21.32,.25,13.83S6.34,.25,13.83,.25s13.58,6.09,13.58,13.58-6.09,13.58-13.58,13.58Z" fill="url(#uuid-da644244-447d-45f8-81ea-bc45ddd8b74e)"/>
    <path d="M13.83,.5c7.35,0,13.33,5.98,13.33,13.33s-5.98,13.33-13.33,13.33S.5,21.19,.5,13.83,6.48,.5,13.83,.5m0-.5C6.19,0,0,6.19,0,13.83s6.19,13.83,13.83,13.83,13.83-6.19,13.83-13.83S21.47,0,13.83,0h0Z" fill="#ffe6ac"/>
  </g>
  <g clip-path="url(#uuid-3325f044-4e7a-4e74-ac99-974ad808c4fe)">
    <g id="uuid-b52138e4-af00-4805-bc45-be1f730e686c" data-name="filled-region">
      <path d="M13.83,27.42C6.34,27.42,.25,21.32,.25,13.83S6.34,.25,13.83,.25s13.58,6.09,13.58,13.58-6.09,13.58-13.58,13.58Z" fill="url(#uuid-82a63d97-0419-4908-9365-2a30f8291021)"/>
      <path d="M13.83,.5c7.35,0,13.33,5.98,13.33,13.33s-5.98,13.33-13.33,13.33S.5,21.19,.5,13.83,6.48,.5,13.83,.5m0-.5C6.19,0,0,6.19,0,13.83s6.19,13.83,13.83,13.83,13.83-6.19,13.83-13.83S21.47,0,13.83,0h0Z" fill="#3d3d3d"/>
    </g>
  </g>
  <g id="uuid-51b029d2-7ef4-4510-a749-192d5f1d895b" data-name="center-node">
    <circle cx="13.83" cy="13.83" r="6.47" fill="#f4ba45"/>
    <path d="M13.83,7.61c3.43,0,6.22,2.79,6.22,6.22s-2.79,6.22-6.22,6.22-6.22-2.79-6.22-6.22,2.79-6.22,6.22-6.22m0-.5c-3.71,0-6.72,3.01-6.72,6.72s3.01,6.72,6.72,6.72,6.72-3.01,6.72-6.72-3.01-6.72-6.72-6.72h0Z" fill="#484848"/>
  </g>
</svg>