<?xml version="1.0" encoding="UTF-8"?>
<svg id="uuid-c594fc8e-4e55-4975-95f7-dd9c1afff47d" data-name="orangeChallenge" xmlns="http://www.w3.org/2000/svg" xmlns:xlink="http://www.w3.org/1999/xlink" viewBox="0 0 27.67 27.67">
  <defs>
    <radialGradient id="uuid-711cb5ce-d5a3-49fb-9560-c42adfffeedb" cx="13.83" cy="13.83" fx="13.83" fy="13.83" r="13.58" gradientUnits="userSpaceOnUse">
      <stop offset=".54" stop-color="#f9ad06"/>
      <stop offset=".59" stop-color="#ffefbf"/>
      <stop offset="1" stop-color="#f99c06" stop-opacity="0"/>
    </radialGradient>
    <clipPath id="uuid-ab8ee961-f407-4f76-ad58-785b8f21b88a">
      <path d="M13.83,13.83c0-.66,.71-1.33,1.42-1.33" fill="none"/>
    </clipPath>
    <radialGradient id="uuid-0d44d14c-fab3-4655-9cf2-7ac6ccac6f0d" cx="13.83" cy="13.83" fx="13.83" fy="13.83" r="13.58" gradientUnits="userSpaceOnUse">
      <stop offset=".54" stop-color="#f99c06"/>
      <stop offset=".59" stop-color="#8a4700"/>
      <stop offset=".65" stop-color="#a25e0d"/>
      <stop offset=".75" stop-color="#c88120"/>
      <stop offset=".85" stop-color="#e49b2f"/>
      <stop offset=".94" stop-color="#f5aa37"/>
      <stop offset="1" stop-color="#fbb03b"/>
    </radialGradient>
  </defs>
  <g id="uuid-a30b7993-e217-4b9a-9a15-a5ca4c6080f8" data-name="filled-region">
    <path d="M13.83,27.42C6.34,27.42,.25,21.32,.25,13.83S6.34,.25,13.83,.25s13.58,6.09,13.58,13.58-6.09,13.58-13.58,13.58Z" fill="url(#uuid-711cb5ce-d5a3-49fb-9560-c42adfffeedb)"/>
    <path d="M13.83,.5c7.35,0,13.33,5.98,13.33,13.33s-5.98,13.33-13.33,13.33S.5,21.19,.5,13.83,6.48,.5,13.83,.5m0-.5C6.19,0,0,6.19,0,13.83s6.19,13.83,13.83,13.83,13.83-6.19,13.83-13.83S21.47,0,13.83,0h0Z" fill="#ffe6ac"/>
  </g>
  <g clip-path="url(#uuid-ab8ee961-f407-4f76-ad58-785b8f21b88a)">
    <g id="uuid-f349576e-919f-43f8-845d-98e54d2d3f6c" data-name="filled-region">
      <path d="M13.83,27.42C6.34,27.42,.25,21.32,.25,13.83S6.34,.25,13.83,.25s13.58,6.09,13.58,13.58-6.09,13.58-13.58,13.58Z" fill="url(#uuid-0d44d14c-fab3-4655-9cf2-7ac6ccac6f0d)"/>
      <path d="M13.83,.5c7.35,0,13.33,5.98,13.33,13.33s-5.98,13.33-13.33,13.33S.5,21.19,.5,13.83,6.48,.5,13.83,.5m0-.5C6.19,0,0,6.19,0,13.83s6.19,13.83,13.83,13.83,13.83-6.19,13.83-13.83S21.47,0,13.83,0h0Z" fill="#3d3d3d"/>
    </g>
  </g>
  <g id="uuid-92d9c7f1-76a9-467d-b3c6-3594745bcdb3" data-name="center-node">
    <circle cx="13.83" cy="13.83" r="6.47" fill="#f9ac00"/>
    <path d="M13.83,7.61c3.43,0,6.22,2.79,6.22,6.22s-2.79,6.22-6.22,6.22-6.22-2.79-6.22-6.22,2.79-6.22,6.22-6.22m0-.5c-3.71,0-6.72,3.01-6.72,6.72s3.01,6.72,6.72,6.72,6.72-3.01,6.72-6.72-3.01-6.72-6.72-6.72h0Z" fill="#484848"/>
  </g>
</svg>