<?xml version="1.0" encoding="UTF-8"?>
<svg id="uuid-b82d2aa9-701d-4424-947e-5d1818f82f48" data-name="redChallenge" xmlns="http://www.w3.org/2000/svg" xmlns:xlink="http://www.w3.org/1999/xlink" viewBox="0 0 27.67 27.67">
  <defs>
    <radialGradient id="uuid-8f6deb2a-173f-4b39-bc55-db26858cb235" cx="13.83" cy="13.83" fx="13.83" fy="13.83" r="13.58" gradientUnits="userSpaceOnUse">
      <stop offset=".54" stop-color="#a20400"/>
      <stop offset=".59" stop-color="#ffc0c0"/>
      <stop offset="1" stop-color="#a20400" stop-opacity="0"/>
    </radialGradient>
    <clipPath id="uuid-f3108a3c-f95e-4dbc-858a-177f201a6c53">
      <path d="M13.83,13.83c0-.66,.71-1.33,1.42-1.33" fill="none"/>
    </clipPath>
    <radialGradient id="uuid-2a9f35e7-be77-41de-b911-93f2f1fdfeff" cx="13.83" cy="13.83" fx="13.83" fy="13.83" r="13.58" gradientUnits="userSpaceOnUse">
      <stop offset=".54" stop-color="#a20400"/>
      <stop offset=".59" stop-color="#ff0700"/>
      <stop offset=".6" stop-color="#fa0600"/>
      <stop offset=".72" stop-color="#d40500"/>
      <stop offset=".83" stop-color="#b80400"/>
      <stop offset=".93" stop-color="#a70400"/>
      <stop offset="1" stop-color="#a20400"/>
    </radialGradient>
  </defs>
  <g id="uuid-ac6afc41-c1e1-44bf-9b22-019920391f8d" data-name="filled-region">
    <path d="M13.83,27.42C6.34,27.42,.25,21.32,.25,13.83S6.34,.25,13.83,.25s13.58,6.09,13.58,13.58-6.09,13.58-13.58,13.58Z" fill="url(#uuid-8f6deb2a-173f-4b39-bc55-db26858cb235)"/>
    <path d="M13.83,.5c7.35,0,13.33,5.98,13.33,13.33s-5.98,13.33-13.33,13.33S.5,21.19,.5,13.83,6.48,.5,13.83,.5m0-.5C6.19,0,0,6.19,0,13.83s6.19,13.83,13.83,13.83,13.83-6.19,13.83-13.83S21.47,0,13.83,0h0Z" fill="#ffacac"/>
  </g>
  <g clip-path="url(#uuid-f3108a3c-f95e-4dbc-858a-177f201a6c53)">
    <g id="uuid-8e53c7ee-1663-49de-a858-987ca8cc6fcb" data-name="filled-region">
      <path d="M13.83,27.42C6.34,27.42,.25,21.32,.25,13.83S6.34,.25,13.83,.25s13.58,6.09,13.58,13.58-6.09,13.58-13.58,13.58Z" fill="url(#uuid-2a9f35e7-be77-41de-b911-93f2f1fdfeff)"/>
      <path d="M13.83,.5c7.35,0,13.33,5.98,13.33,13.33s-5.98,13.33-13.33,13.33S.5,21.19,.5,13.83,6.48,.5,13.83,.5m0-.5C6.19,0,0,6.19,0,13.83s6.19,13.83,13.83,13.83,13.83-6.19,13.83-13.83S21.47,0,13.83,0h0Z" fill="#3d3d3d"/>
    </g>
  </g>
  <g id="uuid-63255298-ee7a-4ab4-8884-0b19a522a807" data-name="center-node">
    <circle cx="13.83" cy="13.83" r="6.47" fill="#a20400"/>
    <path d="M13.83,7.61c3.43,0,6.22,2.79,6.22,6.22s-2.79,6.22-6.22,6.22-6.22-2.79-6.22-6.22,2.79-6.22,6.22-6.22m0-.5c-3.71,0-6.72,3.01-6.72,6.72s3.01,6.72,6.72,6.72,6.72-3.01,6.72-6.72-3.01-6.72-6.72-6.72h0Z" fill="#484848"/>
  </g>
</svg>