<?xml version="1.0" encoding="UTF-8"?>
<svg id="uuid-cfbbcdc5-b896-4a04-aa2c-933607acd472" data-name="blueChallenge" xmlns="http://www.w3.org/2000/svg" xmlns:xlink="http://www.w3.org/1999/xlink" viewBox="0 0 27.67 27.67">
  <defs>
    <radialGradient id="uuid-ed06223d-c464-4546-9e3f-f128882f2b54" cx="13.83" cy="13.83" fx="13.83" fy="13.83" r="13.58" gradientUnits="userSpaceOnUse">
      <stop offset=".54" stop-color="#003bf7"/>
      <stop offset=".59" stop-color="#bfefff"/>
      <stop offset="1" stop-color="#003bf7" stop-opacity="0"/>
    </radialGradient>
    <clipPath id="uuid-bda79c00-49a9-4567-b8ac-651aa7bd5b76">
      <path d="M13.83,13.83c0-.66,.71-1.33,1.42-1.33" fill="none"/>
    </clipPath>
    <radialGradient id="uuid-7989b56e-f273-4a97-a853-c14022ea4afc" cx="13.83" cy="13.83" fx="13.83" fy="13.83" r="13.58" gradientUnits="userSpaceOnUse">
      <stop offset=".54" stop-color="#003bf7"/>
      <stop offset=".59" stop-color="#01358d"/>
      <stop offset=".63" stop-color="#00369e"/>
      <stop offset=".74" stop-color="#0038c4"/>
      <stop offset=".84" stop-color="#0039e0"/>
      <stop offset=".93" stop-color="#003af1"/>
      <stop offset="1" stop-color="#003bf7"/>
    </radialGradient>
  </defs>
  <g id="uuid-3f2f7703-698e-471a-9188-54192ce855c8" data-name="filled-region">
    <path d="M13.83,27.42C6.34,27.42,.25,21.32,.25,13.83S6.34,.25,13.83,.25s13.58,6.09,13.58,13.58-6.09,13.58-13.58,13.58Z" fill="url(#uuid-ed06223d-c464-4546-9e3f-f128882f2b54)"/>
    <path d="M13.83,.5c7.35,0,13.33,5.98,13.33,13.33s-5.98,13.33-13.33,13.33S.5,21.19,.5,13.83,6.48,.5,13.83,.5m0-.5C6.19,0,0,6.19,0,13.83s6.19,13.83,13.83,13.83,13.83-6.19,13.83-13.83S21.47,0,13.83,0h0Z" fill="#cfeeff"/>
  </g>
  <g clip-path="url(#uuid-bda79c00-49a9-4567-b8ac-651aa7bd5b76)">
    <g id="uuid-9571f074-efaf-4877-a521-1e5954ced096" data-name="filled-region">
      <path d="M13.83,27.42C6.34,27.42,.25,21.32,.25,13.83S6.34,.25,13.83,.25s13.58,6.09,13.58,13.58-6.09,13.58-13.58,13.58Z" fill="url(#uuid-7989b56e-f273-4a97-a853-c14022ea4afc)"/>
      <path d="M13.83,.5c7.35,0,13.33,5.98,13.33,13.33s-5.98,13.33-13.33,13.33S.5,21.19,.5,13.83,6.48,.5,13.83,.5m0-.5C6.19,0,0,6.19,0,13.83s6.19,13.83,13.83,13.83,13.83-6.19,13.83-13.83S21.47,0,13.83,0h0Z" fill="#efefef"/>
    </g>
  </g>
  <g id="uuid-582d4b1a-a69a-4e04-8a1b-049ceae24d95" data-name="center-node">
    <circle cx="13.83" cy="13.83" r="6.47" fill="#003bf7"/>
    <path d="M13.83,7.61c3.43,0,6.22,2.79,6.22,6.22s-2.79,6.22-6.22,6.22-6.22-2.79-6.22-6.22,2.79-6.22,6.22-6.22m0-.5c-3.71,0-6.72,3.01-6.72,6.72s3.01,6.72,6.72,6.72,6.72-3.01,6.72-6.72-3.01-6.72-6.72-6.72h0Z" fill="#e6e6e6"/>
  </g>
</svg>