<?xml version="1.0" encoding="UTF-8"?>
<svg id="uuid-f27dddbf-5cba-48ae-86c0-ce05c7c4d480" data-name="purpleChallenge" xmlns="http://www.w3.org/2000/svg" xmlns:xlink="http://www.w3.org/1999/xlink" viewBox="0 0 27.67 27.67">
  <defs>
    <radialGradient id="uuid-226a9eb7-2d2f-4531-9055-bc7486d07938" cx="13.83" cy="13.83" fx="13.83" fy="13.83" r="13.58" gradientUnits="userSpaceOnUse">
      <stop offset=".54" stop-color="#813287"/>
      <stop offset=".59" stop-color="#ffefbf"/>
      <stop offset="1" stop-color="#813287" stop-opacity="0"/>
    </radialGradient>
    <clipPath id="uuid-c5b1ae4d-bb96-4787-b16a-2e1b7b30f740">
      <path d="M13.83,13.83c0-.66,.71-1.33,1.42-1.33" fill="none"/>
    </clipPath>
    <radialGradient id="uuid-f300d3dc-42ca-449a-9846-4d639eed314d" cx="13.83" cy="13.83" fx="13.83" fy="13.83" r="13.58" gradientUnits="userSpaceOnUse">
      <stop offset=".54" stop-color="#813287"/>
      <stop offset=".59" stop-color="#db62e7"/>
      <stop offset=".61" stop-color="#d35edf"/>
      <stop offset=".72" stop-color="#af4bb9"/>
      <stop offset=".83" stop-color="#963d9d"/>
      <stop offset=".93" stop-color="#86348c"/>
      <stop offset="1" stop-color="#813287"/>
    </radialGradient>
  </defs>
  <g id="uuid-249a86ca-7e13-4192-bade-6827f5631700" data-name="filled-region">
    <path d="M13.83,27.42C6.34,27.42,.25,21.32,.25,13.83S6.34,.25,13.83,.25s13.58,6.09,13.58,13.58-6.09,13.58-13.58,13.58Z" fill="url(#uuid-226a9eb7-2d2f-4531-9055-bc7486d07938)"/>
    <path d="M13.83,.5c7.35,0,13.33,5.98,13.33,13.33s-5.98,13.33-13.33,13.33S.5,21.19,.5,13.83,6.48,.5,13.83,.5m0-.5C6.19,0,0,6.19,0,13.83s6.19,13.83,13.83,13.83,13.83-6.19,13.83-13.83S21.47,0,13.83,0h0Z" fill="#f1deea"/>
  </g>
  <g clip-path="url(#uuid-c5b1ae4d-bb96-4787-b16a-2e1b7b30f740)">
    <g id="uuid-acb46eba-3eaa-4092-b2f4-111df6e89f98" data-name="filled-region">
      <path d="M13.83,27.42C6.34,27.42,.25,21.32,.25,13.83S6.34,.25,13.83,.25s13.58,6.09,13.58,13.58-6.09,13.58-13.58,13.58Z" fill="url(#uuid-f300d3dc-42ca-449a-9846-4d639eed314d)"/>
      <path d="M13.83,.5c7.35,0,13.33,5.98,13.33,13.33s-5.98,13.33-13.33,13.33S.5,21.19,.5,13.83,6.48,.5,13.83,.5m0-.5C6.19,0,0,6.19,0,13.83s6.19,13.83,13.83,13.83,13.83-6.19,13.83-13.83S21.47,0,13.83,0h0Z" fill="#f2f2f2"/>
    </g>
  </g>
  <g id="uuid-2e77c49f-f24b-4e80-a38b-7b012ba7feac" data-name="center-node">
    <circle cx="13.83" cy="13.83" r="6.47" fill="#813287"/>
    <path d="M13.83,7.61c3.43,0,6.22,2.79,6.22,6.22s-2.79,6.22-6.22,6.22-6.22-2.79-6.22-6.22,2.79-6.22,6.22-6.22m0-.5c-3.71,0-6.72,3.01-6.72,6.72s3.01,6.72,6.72,6.72,6.72-3.01,6.72-6.72-3.01-6.72-6.72-6.72h0Z" fill="#dfdfdf"/>
  </g>
</svg>