<?xml version="1.0" encoding="UTF-8"?>
<svg id="uuid-4f3325ba-27f7-491d-8a4a-4e8051ff031f" data-name="yellowChallenge" xmlns="http://www.w3.org/2000/svg" xmlns:xlink="http://www.w3.org/1999/xlink" viewBox="0 0 27.67 27.67">
  <defs>
    <radialGradient id="uuid-dfc97d27-22f5-4741-b413-b9728aaac11f" cx="13.83" cy="13.83" fx="13.83" fy="13.83" r="13.58" gradientUnits="userSpaceOnUse">
      <stop offset=".54" stop-color="#f9ee67"/>
      <stop offset=".59" stop-color="#b3b3b3"/>
      <stop offset="1" stop-color="#f9ee67" stop-opacity="0"/>
    </radialGradient>
    <clipPath id="uuid-999f440b-7958-48f5-8850-8d8332b53406">
      <path d="M13.83,13.83c0-.66,.71-1.33,1.42-1.33" fill="none"/>
    </clipPath>
    <radialGradient id="uuid-eccacdfd-500c-44fe-8c8b-402b2906b8b7" cx="13.83" cy="13.83" fx="13.83" fy="13.83" r="13.58" gradientUnits="userSpaceOnUse">
      <stop offset=".54" stop-color="#f9ee67"/>
      <stop offset=".59" stop-color="#7f7500"/>
      <stop offset=".65" stop-color="#877d07"/>
      <stop offset=".75" stop-color="#9f951b"/>
      <stop offset=".87" stop-color="#c5bb3b"/>
      <stop offset="1" stop-color="#f9ee67"/>
    </radialGradient>
  </defs>
  <g id="uuid-f4febfe6-78ee-4253-93f5-2e3f7186f728" data-name="filled-region">
    <path d="M13.83,27.42C6.34,27.42,.25,21.32,.25,13.83S6.34,.25,13.83,.25s13.58,6.09,13.58,13.58-6.09,13.58-13.58,13.58Z" fill="url(#uuid-dfc97d27-22f5-4741-b413-b9728aaac11f)"/>
    <path d="M13.83,.5c7.35,0,13.33,5.98,13.33,13.33s-5.98,13.33-13.33,13.33S.5,21.19,.5,13.83,6.48,.5,13.83,.5m0-.5C6.19,0,0,6.19,0,13.83s6.19,13.83,13.83,13.83,13.83-6.19,13.83-13.83S21.47,0,13.83,0h0Z" fill="#f2f2ca"/>
  </g>
  <g clip-path="url(#uuid-999f440b-7958-48f5-8850-8d8332b53406)">
    <g id="uuid-823c71c9-4ec5-4125-83c3-2ac9ce64cd75" data-name="filled-region">
      <path d="M13.83,27.42C6.34,27.42,.25,21.32,.25,13.83S6.34,.25,13.83,.25s13.58,6.09,13.58,13.58-6.09,13.58-13.58,13.58Z" fill="url(#uuid-eccacdfd-500c-44fe-8c8b-402b2906b8b7)"/>
      <path d="M13.83,.5c7.35,0,13.33,5.98,13.33,13.33s-5.98,13.33-13.33,13.33S.5,21.19,.5,13.83,6.48,.5,13.83,.5m0-.5C6.19,0,0,6.19,0,13.83s6.19,13.83,13.83,13.83,13.83-6.19,13.83-13.83S21.47,0,13.83,0h0Z" fill="#3d3d3d"/>
    </g>
  </g>
  <g id="uuid-6350111d-ff47-4632-a655-d0c9569fc0d5" data-name="center-node">
    <circle cx="13.83" cy="13.83" r="6.47" fill="#f9ee67"/>
    <path d="M13.83,7.61c3.43,0,6.22,2.79,6.22,6.22s-2.79,6.22-6.22,6.22-6.22-2.79-6.22-6.22,2.79-6.22,6.22-6.22m0-.5c-3.71,0-6.72,3.01-6.72,6.72s3.01,6.72,6.72,6.72,6.72-3.01,6.72-6.72-3.01-6.72-6.72-6.72h0Z" fill="#484848"/>
  </g>
</svg>