<?xml version="1.0" encoding="UTF-8"?>
<svg xmlns="http://www.w3.org/2000/svg" xmlns:xlink="http://www.w3.org/1999/xlink" viewBox="0 0 256 32">
  <defs>
    <radialGradient id="radial-gradient" cx="237.6" cy="16" fx="237.6" fy="16" r="14.47" gradientTransform="translate(106.21 7.15) scale(.55)" gradientUnits="userSpaceOnUse">
      <stop offset=".49" stop-color="#000"/>
      <stop offset=".98" stop-color="#e6e6e6" stop-opacity=".1"/>
      <stop offset="1" stop-color="#fff" stop-opacity="0"/>
    </radialGradient>
    <radialGradient id="radial-gradient-2" cx="213.24" cy="16" fx="213.24" fy="16" r="14.47" gradientTransform="translate(95.32 7.15) scale(.55)" gradientUnits="userSpaceOnUse">
      <stop offset=".47" stop-color="#b62626"/>
      <stop offset=".55" stop-color="#b72a2a" stop-opacity=".98"/>
      <stop offset=".63" stop-color="#bb3737" stop-opacity=".92"/>
      <stop offset=".71" stop-color="#c34d4d" stop-opacity=".82"/>
      <stop offset=".78" stop-color="#cd6c6c" stop-opacity=".67"/>
      <stop offset=".86" stop-color="#db9494" stop-opacity=".49"/>
      <stop offset=".93" stop-color="#ebc5c5" stop-opacity=".27"/>
      <stop offset="1" stop-color="#fefefe" stop-opacity="0"/>
      <stop offset="1" stop-color="#fff" stop-opacity="0"/>
    </radialGradient>
    <radialGradient id="radial-gradient-3" cx="213.24" cy="16" fx="213.24" fy="16" r="8" gradientTransform="matrix(1, 0, 0, 1, 0, 0)" gradientUnits="userSpaceOnUse">
      <stop offset=".5" stop-color="#810000"/>
      <stop offset=".59" stop-color="#840101"/>
      <stop offset=".68" stop-color="#8f0505"/>
      <stop offset=".77" stop-color="#a20b0c"/>
      <stop offset=".85" stop-color="#bc1416"/>
      <stop offset=".93" stop-color="#dd2023"/>
      <stop offset="1" stop-color="#ff2c30"/>
    </radialGradient>
    <radialGradient id="radial-gradient-4" cx="188.89" cy="16" fx="188.89" fy="16" r="14.47" gradientTransform="translate(84.43 7.15) scale(.55)" gradientUnits="userSpaceOnUse">
      <stop offset=".52" stop-color="#ffbc00"/>
      <stop offset=".59" stop-color="#ffbc03" stop-opacity=".99"/>
      <stop offset=".65" stop-color="#ffbf0e" stop-opacity=".94"/>
      <stop offset=".71" stop-color="#ffc421" stop-opacity=".87"/>
      <stop offset=".77" stop-color="#ffcb3b" stop-opacity=".77"/>
      <stop offset=".82" stop-color="#ffd45d" stop-opacity=".64"/>
      <stop offset=".88" stop-color="#ffdf86" stop-opacity=".47"/>
      <stop offset=".93" stop-color="#ffecb7" stop-opacity=".28"/>
      <stop offset=".99" stop-color="#fffaee" stop-opacity=".06"/>
      <stop offset="1" stop-color="#fff" stop-opacity="0"/>
    </radialGradient>
    <radialGradient id="radial-gradient-5" cx="188.89" cy="16" fx="188.89" fy="16" r="8" gradientTransform="matrix(1, 0, 0, 1, 0, 0)" gradientUnits="userSpaceOnUse">
      <stop offset=".5" stop-color="#f15a24"/>
      <stop offset=".62" stop-color="#f15d24"/>
      <stop offset=".72" stop-color="#f26827"/>
      <stop offset=".82" stop-color="#f47b2c"/>
      <stop offset=".92" stop-color="#f79533"/>
      <stop offset="1" stop-color="#fbb03b"/>
    </radialGradient>
    <radialGradient id="radial-gradient-6" cx="164.53" cy="16" fx="164.53" fy="16" r="14.47" gradientTransform="translate(73.55 7.15) scale(.55)" gradientUnits="userSpaceOnUse">
      <stop offset=".5" stop-color="#754c24"/>
      <stop offset=".6" stop-color="#79512a" stop-opacity=".97"/>
      <stop offset=".69" stop-color="#86623f" stop-opacity=".87"/>
      <stop offset=".78" stop-color="#9c7e62" stop-opacity=".72"/>
      <stop offset=".87" stop-color="#baa692" stop-opacity=".49"/>
      <stop offset=".95" stop-color="#e2d9d1" stop-opacity=".21"/>
      <stop offset="1" stop-color="#fff" stop-opacity="0"/>
    </radialGradient>
    <radialGradient id="radial-gradient-7" cx="164.53" cy="16" fx="164.53" fy="16" r="8" gradientTransform="matrix(1, 0, 0, 1, 0, 0)" gradientUnits="userSpaceOnUse">
      <stop offset=".5" stop-color="#6a4100"/>
      <stop offset=".65" stop-color="#6d4401"/>
      <stop offset=".8" stop-color="#764f06"/>
      <stop offset=".93" stop-color="#85620d"/>
      <stop offset="1" stop-color="#906e13"/>
    </radialGradient>
    <radialGradient id="radial-gradient-8" cx="140.18" cy="16" fx="140.18" fy="16" r="14.47" gradientTransform="translate(62.66 7.15) scale(.55)" gradientUnits="userSpaceOnUse">
      <stop offset=".5" stop-color="#007a00"/>
      <stop offset=".6" stop-color="#077d07" stop-opacity=".97"/>
      <stop offset=".69" stop-color="#1e891e" stop-opacity=".88"/>
      <stop offset=".77" stop-color="#459e45" stop-opacity=".73"/>
      <stop offset=".86" stop-color="#7bba7b" stop-opacity=".51"/>
      <stop offset=".94" stop-color="#c1dec1" stop-opacity=".24"/>
      <stop offset="1" stop-color="#fff" stop-opacity="0"/>
    </radialGradient>
    <radialGradient id="radial-gradient-9" cx="140.18" cy="16" fx="140.18" fy="16" r="8" gradientTransform="matrix(1, 0, 0, 1, 0, 0)" gradientUnits="userSpaceOnUse">
      <stop offset=".45" stop-color="#165500"/>
      <stop offset=".57" stop-color="#175802"/>
      <stop offset=".68" stop-color="#1b630b"/>
      <stop offset=".79" stop-color="#227619"/>
      <stop offset=".89" stop-color="#2b902d"/>
      <stop offset=".99" stop-color="#37b147"/>
      <stop offset="1" stop-color="#39b54a"/>
    </radialGradient>
    <radialGradient id="radial-gradient-10" cx="115.82" cy="16" fx="115.82" fy="16" r="14.47" gradientTransform="translate(51.77 7.15) scale(.55)" gradientUnits="userSpaceOnUse">
      <stop offset=".45" stop-color="#001bff"/>
      <stop offset=".53" stop-color="#031eff" stop-opacity=".99"/>
      <stop offset=".6" stop-color="#0e28ff" stop-opacity=".94"/>
      <stop offset=".66" stop-color="#2138ff" stop-opacity=".87"/>
      <stop offset=".73" stop-color="#3b50ff" stop-opacity=".77"/>
      <stop offset=".8" stop-color="#5d6eff" stop-opacity=".64"/>
      <stop offset=".86" stop-color="#8693ff" stop-opacity=".47"/>
      <stop offset=".92" stop-color="#b7beff" stop-opacity=".28"/>
      <stop offset=".98" stop-color="#eef0ff" stop-opacity=".06"/>
      <stop offset="1" stop-color="#fff" stop-opacity="0"/>
    </radialGradient>
    <radialGradient id="radial-gradient-11" cx="115.82" cy="16" fx="115.82" fy="16" r="8" gradientTransform="matrix(1, 0, 0, 1, 0, 0)" gradientUnits="userSpaceOnUse">
      <stop offset=".73" stop-color="#0000a9"/>
      <stop offset=".78" stop-color="#0003ab"/>
      <stop offset=".83" stop-color="#020eb2"/>
      <stop offset=".87" stop-color="#0621be"/>
      <stop offset=".92" stop-color="#0b3bcf"/>
      <stop offset=".96" stop-color="#115ce4"/>
      <stop offset="1" stop-color="#1985ff"/>
    </radialGradient>
    <radialGradient id="radial-gradient-12" cx="91.47" cy="16" fx="91.47" fy="16" r="14.47" gradientTransform="translate(40.89 7.15) scale(.55)" gradientUnits="userSpaceOnUse">
      <stop offset=".41" stop-color="#6a0094"/>
      <stop offset=".52" stop-color="#6d0696" stop-opacity=".98"/>
      <stop offset=".62" stop-color="#78199e" stop-opacity=".9"/>
      <stop offset=".71" stop-color="#8b39ac" stop-opacity=".78"/>
      <stop offset=".8" stop-color="#a566be" stop-opacity=".6"/>
      <stop offset=".89" stop-color="#c7a0d7" stop-opacity=".37"/>
      <stop offset=".97" stop-color="#f0e6f4" stop-opacity=".1"/>
      <stop offset="1" stop-color="#fff" stop-opacity="0"/>
    </radialGradient>
    <radialGradient id="radial-gradient-13" cx="91.47" cy="16" fx="91.47" fy="16" r="8" gradientTransform="matrix(1, 0, 0, 1, 0, 0)" gradientUnits="userSpaceOnUse">
      <stop offset=".73" stop-color="#350055"/>
      <stop offset=".78" stop-color="#380158"/>
      <stop offset=".82" stop-color="#410663"/>
      <stop offset=".86" stop-color="#510d76"/>
      <stop offset=".9" stop-color="#671890"/>
      <stop offset=".93" stop-color="#8426b1"/>
      <stop offset=".97" stop-color="#a636da"/>
      <stop offset="1" stop-color="#c646ff"/>
    </radialGradient>
    <radialGradient id="radial-gradient-14" cx="67.11" cy="16" fx="67.11" fy="16" r="14.47" gradientTransform="translate(30 7.15) scale(.55)" gradientUnits="userSpaceOnUse">
      <stop offset=".28" stop-color="#e96800"/>
      <stop offset=".39" stop-color="#e96a03" stop-opacity=".98"/>
      <stop offset=".48" stop-color="#ea7110" stop-opacity=".94"/>
      <stop offset=".57" stop-color="#ec7d24" stop-opacity=".86"/>
      <stop offset=".66" stop-color="#ee8e40" stop-opacity=".75"/>
      <stop offset=".75" stop-color="#f1a465" stop-opacity=".6"/>
      <stop offset=".84" stop-color="#f5bf92" stop-opacity=".42"/>
      <stop offset=".92" stop-color="#fadec7" stop-opacity=".22"/>
      <stop offset="1" stop-color="#fff" stop-opacity="0"/>
    </radialGradient>
    <radialGradient id="radial-gradient-15" cx="67.11" cy="16" fx="67.11" fy="16" r="8" gradientTransform="matrix(1, 0, 0, 1, 0, 0)" gradientUnits="userSpaceOnUse">
      <stop offset=".73" stop-color="#db4000"/>
      <stop offset=".81" stop-color="#dd4300"/>
      <stop offset=".87" stop-color="#e34e00"/>
      <stop offset=".93" stop-color="#ee6100"/>
      <stop offset="1" stop-color="#fd7b00"/>
      <stop offset="1" stop-color="#ff7d00"/>
    </radialGradient>
    <radialGradient id="radial-gradient-16" cx="42.76" cy="16" fx="42.76" fy="16" r="14.47" gradientTransform="translate(19.11 7.15) scale(.55)" gradientUnits="userSpaceOnUse">
      <stop offset="0" stop-color="#e9d000"/>
      <stop offset=".33" stop-color="#e9d002" stop-opacity=".99"/>
      <stop offset=".47" stop-color="#e9d10a" stop-opacity=".96"/>
      <stop offset=".58" stop-color="#ebd417" stop-opacity=".91"/>
      <stop offset=".66" stop-color="#ecd72a" stop-opacity=".83"/>
      <stop offset=".74" stop-color="#eedc44" stop-opacity=".73"/>
      <stop offset=".8" stop-color="#f1e263" stop-opacity=".61"/>
      <stop offset=".86" stop-color="#f4e988" stop-opacity=".47"/>
      <stop offset=".92" stop-color="#f8f1b3" stop-opacity=".3"/>
      <stop offset=".97" stop-color="#fcf9e2" stop-opacity=".11"/>
      <stop offset="1" stop-color="#fff" stop-opacity="0"/>
    </radialGradient>
    <radialGradient id="radial-gradient-17" cx="42.76" cy="16" fx="42.76" fy="16" r="8" gradientTransform="matrix(1, 0, 0, 1, 0, 0)" gradientUnits="userSpaceOnUse">
      <stop offset=".85" stop-color="#dbb800"/>
      <stop offset=".88" stop-color="#dcba03"/>
      <stop offset=".91" stop-color="#e0c10e"/>
      <stop offset=".94" stop-color="#e6ce21"/>
      <stop offset=".97" stop-color="#efe03b"/>
      <stop offset=".99" stop-color="#faf65c"/>
      <stop offset="1" stop-color="#ffff69"/>
    </radialGradient>
    <radialGradient id="radial-gradient-18" cx="18.4" cy="16" fx="18.4" fy="16" r="28.93" gradientTransform="translate(8.22 7.15) scale(.55)" gradientUnits="userSpaceOnUse">
      <stop offset="0" stop-color="#000"/>
      <stop offset=".95" stop-color="#e6e6e6" stop-opacity=".1"/>
      <stop offset="1" stop-color="#fff" stop-opacity="0"/>
    </radialGradient>
    <radialGradient id="radial-gradient-19" cx="18.4" cy="16" fx="18.4" fy="16" r="8" gradientTransform="matrix(1, 0, 0, 1, 0, 0)" gradientUnits="userSpaceOnUse">
      <stop offset=".81" stop-color="#555"/>
      <stop offset=".84" stop-color="#585858"/>
      <stop offset=".87" stop-color="#636363"/>
      <stop offset=".9" stop-color="#767676"/>
      <stop offset=".93" stop-color="#909090"/>
      <stop offset=".95" stop-color="#b1b1b1"/>
      <stop offset=".98" stop-color="#dadada"/>
      <stop offset="1" stop-color="#fff"/>
    </radialGradient>
    <clipPath id="clippath">
      <circle id="white-overlay-mask" cx="18.4" cy="16" r="6" fill="none"/>
    </clipPath>
    <radialGradient id="radial-gradient-20" cx="12.73" cy="21.08" fx="12.73" fy="21.08" r="10.11" gradientTransform="matrix(1, 0, 0, 1, 0, 0)" gradientUnits="userSpaceOnUse">
      <stop offset="0" stop-color="#d0d0d0"/>
      <stop offset="1" stop-color="#fff" stop-opacity="0"/>
    </radialGradient>
    <radialGradient id="radial-gradient-21" cx="24.52" cy="15.7" fx="24.52" fy="15.7" r="10.11" gradientTransform="matrix(1, 0, 0, 1, 0, 0)" gradientUnits="userSpaceOnUse">
      <stop offset="0" stop-color="#898989"/>
      <stop offset="1" stop-color="#fff" stop-opacity="0"/>
    </radialGradient>
    <radialGradient id="radial-gradient-22" cx="14.88" cy="10.17" fx="14.88" fy="10.17" r="10.11" gradientTransform="matrix(1, 0, 0, 1, 0, 0)" gradientUnits="userSpaceOnUse">
      <stop offset="0" stop-color="#fff"/>
      <stop offset="1" stop-color="#8c8c8c" stop-opacity="0"/>
    </radialGradient>
  </defs>
  <g id="blackSash">
    <g id="black-glow">
      <circle cx="237.6" cy="16" r="8" fill="url(#radial-gradient)"/>
    </g>
    <g id="black-node">
      <circle cx="237.6" cy="16" r="7.75"/>
      <path d="M237.6,8.5c4.14,0,7.5,3.36,7.5,7.5s-3.36,7.5-7.5,7.5-7.5-3.36-7.5-7.5,3.36-7.5,7.5-7.5m0-.5c-4.42,0-8,3.58-8,8s3.58,8,8,8,8-3.58,8-8-3.58-8-8-8h0Z" fill="#555"/>
    </g>
  </g>
  <g id="redSash">
    <g id="red-glow">
      <circle cx="213.24" cy="16" r="8" fill="url(#radial-gradient-2)"/>
    </g>
    <g id="red-node">
      <circle cx="213.24" cy="16" r="8" fill="#d00017"/>
      <path d="M213.24,8.5c4.14,0,7.5,3.36,7.5,7.5s-3.36,7.5-7.5,7.5-7.5-3.36-7.5-7.5,3.36-7.5,7.5-7.5m0-.5c-4.42,0-8,3.58-8,8s3.58,8,8,8,8-3.58,8-8-3.58-8-8-8h0Z" fill="url(#radial-gradient-3)"/>
    </g>
  </g>
  <g id="goldSash">
    <g id="gold-glow">
      <circle cx="188.89" cy="16" r="8" fill="url(#radial-gradient-4)"/>
    </g>
    <g id="gold-node">
      <circle cx="188.89" cy="16" r="8" fill="#ee9002"/>
      <path d="M188.89,8.5c4.14,0,7.5,3.36,7.5,7.5s-3.36,7.5-7.5,7.5-7.5-3.36-7.5-7.5,3.36-7.5,7.5-7.5m0-.5c-4.42,0-8,3.58-8,8s3.58,8,8,8,8-3.58,8-8-3.58-8-8-8h0Z" fill="url(#radial-gradient-5)"/>
    </g>
  </g>
  <g id="brownSash">
    <g id="brown-glow">
      <circle cx="164.53" cy="16" r="8" fill="url(#radial-gradient-6)"/>
    </g>
    <g id="brown-node">
      <circle cx="164.53" cy="16" r="8" fill="#5c3900"/>
      <path d="M164.53,8.5c4.14,0,7.5,3.36,7.5,7.5s-3.36,7.5-7.5,7.5-7.5-3.36-7.5-7.5,3.36-7.5,7.5-7.5m0-.5c-4.42,0-8,3.58-8,8s3.58,8,8,8,8-3.58,8-8-3.58-8-8-8h0Z" fill="url(#radial-gradient-7)"/>
    </g>
  </g>
  <g id="greenSash">
    <g id="green-glow">
      <circle cx="140.18" cy="16" r="8" fill="url(#radial-gradient-8)"/>
    </g>
    <g id="green-node">
      <circle cx="140.18" cy="16" r="8" fill="#00a20d"/>
      <path d="M140.18,8.5c4.14,0,7.5,3.36,7.5,7.5s-3.36,7.5-7.5,7.5-7.5-3.36-7.5-7.5,3.36-7.5,7.5-7.5m0-.5c-4.42,0-8,3.58-8,8s3.58,8,8,8,8-3.58,8-8-3.58-8-8-8h0Z" fill="url(#radial-gradient-9)"/>
    </g>
  </g>
  <g id="blueSash">
    <g id="blue-glow">
      <circle cx="115.82" cy="16" r="8" fill="url(#radial-gradient-10)"/>
    </g>
    <g id="blue-node">
      <circle cx="115.82" cy="16" r="8" fill="#001ab9"/>
      <path d="M115.82,8.5c4.14,0,7.5,3.36,7.5,7.5s-3.36,7.5-7.5,7.5-7.5-3.36-7.5-7.5,3.36-7.5,7.5-7.5m0-.5c-4.42,0-8,3.58-8,8s3.58,8,8,8,8-3.58,8-8-3.58-8-8-8h0Z" fill="url(#radial-gradient-11)"/>
    </g>
  </g>
  <g id="purpleSash">
    <g id="purple-glow">
      <circle cx="91.47" cy="16" r="8" fill="url(#radial-gradient-12)"/>
    </g>
    <g id="purple-node">
      <circle cx="91.47" cy="16" r="8" fill="#7500d0"/>
      <path d="M91.47,8.5c4.14,0,7.5,3.36,7.5,7.5s-3.36,7.5-7.5,7.5-7.5-3.36-7.5-7.5,3.36-7.5,7.5-7.5m0-.5c-4.42,0-8,3.58-8,8s3.58,8,8,8,8-3.58,8-8-3.58-8-8-8h0Z" fill="url(#radial-gradient-13)"/>
    </g>
  </g>
  <g id="orangeSash">
    <g id="orange-glow">
      <circle cx="67.11" cy="16" r="8" fill="url(#radial-gradient-14)"/>
    </g>
    <g id="orange-node">
      <circle cx="67.11" cy="16" r="8" fill="#ff6c17"/>
      <path d="M67.11,8.5c4.14,0,7.5,3.36,7.5,7.5s-3.36,7.5-7.5,7.5-7.5-3.36-7.5-7.5,3.36-7.5,7.5-7.5m0-.5c-4.42,0-8,3.58-8,8s3.58,8,8,8,8-3.58,8-8-3.58-8-8-8h0Z" fill="url(#radial-gradient-15)"/>
    </g>
  </g>
  <g id="yellowSash">
    <g id="yellow-glow">
      <circle cx="42.76" cy="16" r="8" fill="url(#radial-gradient-16)"/>
    </g>
    <g id="yellow-node">
      <circle cx="42.76" cy="16" r="8" fill="#ffe817"/>
      <path d="M42.76,8.5c4.14,0,7.5,3.36,7.5,7.5s-3.36,7.5-7.5,7.5-7.5-3.36-7.5-7.5,3.36-7.5,7.5-7.5m0-.5c-4.42,0-8,3.58-8,8s3.58,8,8,8,8-3.58,8-8-3.58-8-8-8h0Z" fill="url(#radial-gradient-17)"/>
    </g>
  </g>
  <g id="whiteSash">
    <g id="white-glow">
      <circle cx="18.4" cy="16" r="16" fill="url(#radial-gradient-18)"/>
    </g>
    <g id="white-node">
      <circle cx="18.4" cy="16" r="8" fill="#fff"/>
      <path d="M18.4,8.5c4.14,0,7.5,3.36,7.5,7.5s-3.36,7.5-7.5,7.5-7.5-3.36-7.5-7.5,3.36-7.5,7.5-7.5m0-.5c-4.42,0-8,3.58-8,8s3.58,8,8,8,8-3.58,8-8-3.58-8-8-8h0Z" fill="url(#radial-gradient-19)"/>
    </g>
    <g id="white-overlay">
      <g clip-path="url(#clippath)">
        <g id="white-overlay-gradients">
          <g id="white-overlay-gradC">
            <circle cx="12.73" cy="21.08" r="10.11" fill="url(#radial-gradient-20)"/>
          </g>
          <g id="white-overlay-gradB">
            <circle cx="24.52" cy="15.7" r="10.11" fill="url(#radial-gradient-21)"/>
          </g>
          <g id="white-overlay-gradA">
            <circle cx="14.88" cy="10.17" r="10.11" fill="url(#radial-gradient-22)"/>
          </g>
        </g>
      </g>
    </g>
  </g>
</svg>