<?xml version="1.0" encoding="UTF-8"?>
<svg id="uuid-8e7a0e4c-a8bf-4156-a3c2-b8279e6e8d49" data-name="brownChallenge" xmlns="http://www.w3.org/2000/svg" xmlns:xlink="http://www.w3.org/1999/xlink" viewBox="0 0 27.67 27.67">
  <defs>
    <radialGradient id="uuid-057510ab-9c15-4878-b404-39e4e9517d8c" cx="13.83" cy="13.83" fx="13.83" fy="13.83" r="13.58" gradientUnits="userSpaceOnUse">
      <stop offset=".54" stop-color="#8e634a"/>
      <stop offset=".59" stop-color="#ffefbf"/>
      <stop offset="1" stop-color="#8e634a" stop-opacity="0"/>
    </radialGradient>
    <clipPath id="uuid-3814affc-edd3-4e65-87cb-30c257a7503e">
      <path d="M13.83,13.83c0-.66,.71-1.33,1.42-1.33" fill="none"/>
    </clipPath>
    <radialGradient id="uuid-94d547da-cb12-4b78-896c-f6020ad4d835" cx="13.83" cy="13.83" fx="13.83" fy="13.83" r="13.58" gradientUnits="userSpaceOnUse">
      <stop offset=".54" stop-color="#8e634a"/>
      <stop offset=".59" stop-color="#b78f5e"/>
      <stop offset=".73" stop-color="#a27954"/>
      <stop offset=".88" stop-color="#93684c"/>
      <stop offset="1" stop-color="#8e634a"/>
    </radialGradient>
  </defs>
  <g id="uuid-22b22477-eec5-4b8e-927d-97c5c2dbc64a" data-name="filled-region">
    <path d="M13.83,27.42C6.34,27.42,.25,21.32,.25,13.83S6.34,.25,13.83,.25s13.58,6.09,13.58,13.58-6.09,13.58-13.58,13.58Z" fill="url(#uuid-057510ab-9c15-4878-b404-39e4e9517d8c)"/>
    <path d="M13.83,.5c7.35,0,13.33,5.98,13.33,13.33s-5.98,13.33-13.33,13.33S.5,21.19,.5,13.83,6.48,.5,13.83,.5m0-.5C6.19,0,0,6.19,0,13.83s6.19,13.83,13.83,13.83,13.83-6.19,13.83-13.83S21.47,0,13.83,0h0Z" fill="#f4eee4"/>
  </g>
  <g clip-path="url(#uuid-3814affc-edd3-4e65-87cb-30c257a7503e)">
    <g id="uuid-28eaab3c-7b8d-4f3e-bc42-af41098ab4d4" data-name="filled-region">
      <path d="M13.83,27.42C6.34,27.42,.25,21.32,.25,13.83S6.34,.25,13.83,.25s13.58,6.09,13.58,13.58-6.09,13.58-13.58,13.58Z" fill="url(#uuid-94d547da-cb12-4b78-896c-f6020ad4d835)"/>
      <path d="M13.83,.5c7.35,0,13.33,5.98,13.33,13.33s-5.98,13.33-13.33,13.33S.5,21.19,.5,13.83,6.48,.5,13.83,.5m0-.5C6.19,0,0,6.19,0,13.83s6.19,13.83,13.83,13.83,13.83-6.19,13.83-13.83S21.47,0,13.83,0h0Z" fill="#efefef"/>
    </g>
  </g>
  <g id="uuid-d328addd-6e97-4cf8-967c-bfec37109b11" data-name="center-node">
    <circle cx="13.83" cy="13.83" r="6.47" fill="#8e634a"/>
    <path d="M13.83,7.61c3.43,0,6.22,2.79,6.22,6.22s-2.79,6.22-6.22,6.22-6.22-2.79-6.22-6.22,2.79-6.22,6.22-6.22m0-.5c-3.71,0-6.72,3.01-6.72,6.72s3.01,6.72,6.72,6.72,6.72-3.01,6.72-6.72-3.01-6.72-6.72-6.72h0Z" fill="#f4f4f4"/>
  </g>
</svg>